<svg xmlns="http://www.w3.org/2000/svg" viewBox="0 0 987.43 441.45"><defs><style>.cls-1{fill:#e20613;fill-rule:evenodd;}</style></defs><g id="Capa_2" data-name="Capa 2"><g id="Recursos"><path class="cls-1" d="M651.24,244.64a7.86,7.86,0,0,0-.5,1.22c-.17.55-.35,1.08-.35,1.08,0,.41.48.59.65.92.77,1.48,0,1.87,0,2.87,0,2,1.43,3.57,2.28,5.51.27.61.43,1.55.72,2s.94.62,1.41,1.21c-.09,0-.22.26-.18.37s.35.11.38.15c.7,1.06,1.45,3.05,2.3,3.84-3.84.62-7.74,1.38-11.64,2.33-28.16,6.83-57.78,23.2-76.24,40.35s-25.8,35.07-28.83,45.38-1.77,13-3.19,6.3-5.56-22.91,1.83-42,26.25-41.26,42.63-55.33,30.26-20.12,38.78-23.25,11.71-3.38,8.28-5-13.48-4.7-26.82-1.88-29.93,11.52-55.84,21.21-61.14,20.34-93.59,23.91-62.13,0-75.58-1.44-10.7-.91,2.16-2.66a495.79,495.79,0,0,0,59.5-12.3,395.45,395.45,0,0,0,69.82-26.17,432.19,432.19,0,0,0,51.13-30.39c10-6.89,10.77-8,3.95-4.8s-21.2,10.54-39.21,17.34-39.61,13-73.65,20.89S371,253.6,324.11,253s-94.2-11.27-119.54-17.59-28.74-8.21-22.18-8.14,23.06,2.11,44.93,1.92,49.13-2.59,79.34-8.07,63.34-14,103.65-28.52,87.74-35,110.12-44.84,19.66-9.07,2.14-4.27-49.86,13.6-96.87,25.63S317,196.36,260.22,201.84,151.63,203,109.09,185.27s-75.81-49-93.22-66.78-19-22.09-12-16.79S26.27,122,45.93,132.37s43.51,16.29,66.24,21.22,44.33,8.92,74.29,5.72,68.26-13.56,104-23,68.87-18,86.31-23.18,19.19-7.06,12.79-6.31-21,4.08-39.05,3.76-39.68-4.29-58.38-13.63S257.62,73,248,63.05s-13-15-9-13.66,15.56,9.29,30.25,15.35S301.83,75,329.19,73.67s64.21-8.21,118.32-25C496.1,33.59,558.61,10.52,623.89,0a.91.91,0,0,0,.05.21c.13.47.61.86.75,1.29.5,1.47.65,3.11,1.07,4.52s.94,2.46,1.28,3.69.35,2.33.65,3.47.84,1.53.85,2.36c0,1,.05.77.47,1.6s.24,1.55.54,2.39c.2.57.69,1,.78,1.56s-.39,1.14-.46,1.94c0,.5.41.81.42,1,0,1.89-1.74.36-2.91-.55-.3-.24-.44-.79-.72-1-.46-.35-1-.37-1.33-.68-.11-.12,0-.42-.06-.54s-.56-.11-.64-.22c-.32-.39-.26-1.14-.45-1.31s-1-.31-1.65-.66c-.21-.13-.17-.67-.39-.78,0,0-1-.16-1-.18-2.3,0-3.12,1.57-3.43,3.58a15.31,15.31,0,0,0,.32,3.51,23.32,23.32,0,0,0,.4,4.31c.16.54.73,1.06.76,1.28a3.34,3.34,0,0,0-.61.33c-.07.18.07.62.08.81.12,1.5.79,3.25,1.11,5.06.14.78.07,1.62.23,2.42.22,1.21,1,2.36,1.29,3.68.1.44-.26,1-.19,1.38.15.9.67,1.73.88,2.64.15.63,0,1.17.18,1.88.63,3.18,1.66,6.91,2.16,9.59.37,1.94-.37,3.09-.23,4.36.07.58.65,1.06.79,1.56.66,2.34.26,5.45.78,8.36.23,1.31.77,2.46,1,3.7.44,2.59.5,5.4.76,8.09s.89,5.68.73,7.82c-.1,1.33-1.07,2.61-1.22,3.91s.42,3.9.46,4.85c0,.43-.26.95-.19,1.38.28,1.77,1.42,3.31,1.08,4.78-.15.65-1.82,1.52-2,2.37-.29,1.29.88,3.12,1.44,5.3.6,2.37.82,5.34,1.58,6.64.94,1.67,2.44,6.12.67,7.28-.18.11-.51-.54-1-.46.19,0-.24.29-.28.3a5.31,5.31,0,0,1-.6.33c-.22.39.41,4.42.86,5.9.19.58.74.75,1.1,1.53-.06-.13-.29.2-.29.3s.28.32.37.51c.34.85.25,1.77.56,2.67.39,1.11,1.17,2.21,1.58,3.38s.21,1.8.54,2.39a18.84,18.84,0,0,1,1.07,2.28,6.67,6.67,0,0,1,.63,1.29,9.32,9.32,0,0,1,.62,1c0,.09.24.57.38.91l.41,1.1c.54,1.49,1,3,1.45,4.37.15.48.63.85.84,1.43a49.17,49.17,0,0,1,1.41,5c.06.32-.18.83-.15,1.48s.62,1.86.51,2.4a6.78,6.78,0,0,1-.84,1.44c-.84,1.31-1.3,1.24-2.28,1.1a12.77,12.77,0,0,0-1.37-.09c-.6-.05-2.19-.32-2.44-.29s-.42.43-.51.46a13.6,13.6,0,0,1-2.25.22c-.82.19-.87.93-1.22,1.3s-1,.24-1.11.67c-.35,1.3.93,3.32,1.43,5a28,28,0,0,0,.69,2.91c.38.95,1.31,1.79,1.58,2.59.18.56-.1.94.15,1.39s.69.42,1,.81.27,1.19.54,1.52c0,.06.61,0,.69,0s.09.59.27.76.74.55,1,.82c.66.8,1.59,2.59,2,2.75,1.31.53,1.57,1.84,2.36,2.89s2,2.74,1,3.68c-.19.17-.83-.22-1.07-.19-.44.05-1,.55-1.49.52-.18,0-.65-.48-.86-.56a4.47,4.47,0,0,0-3.87,1.37,3.63,3.63,0,0,0-.65,1.95,10.11,10.11,0,0,0,.94,4.55c.21.38,0,1,.07,1.12a27,27,0,0,0,3.07,4.94c.36.55.62,1.18.92,1.68s.58,1.2.93,1.69c.06.07.69.19.78.3.59.73.39,1.22.93,1.67s1.21.17.65.92c-.15.21.42.19.39.15.22.38.51.83.75,1.18.57.78,1.51,2.14,1.87,2.48a6.79,6.79,0,0,1,.57.66c.85,1,1.86,1.6,2.48,2.29,1.26,1.39,2.05,2.53,3.32,3.71.62.59,3.93,2.47,1.65,3.72-.4.22-1-.63-1.94-.75-.41-.06-1.16.28-1.58.27-.62,0-1-.45-1.37-.1,0,.39-.28.61-.32,1-.17,1.38.48-1.05.17.51a2.06,2.06,0,0,0-1.09.67c-.06.85.78.69,1.51,1.47a1.49,1.49,0,0,0,.28.77c.29.34.7.54,1,.82.47.51.51,1.12.84,1.43.08.08.59-.07.68,0,.53.53.84,1.56,1.41,2.08.09.08.78.13,1.16.45s.45.93.75,1.18.86.2,1.16.45C656.85,243.48,652.67,243.18,651.24,244.64Z"/><path class="cls-1" d="M987.19,207.78c-2.39,28.59-22.52,45.94-40.65,59s-34.26,21.83-61.65,28.44-66.08,11.07-92.66,9.78-41.08-8.26-60.35-17.69c-16-7.77-35.18-17.22-57.62-22.16-.23-1.92-.77-3.44-1-5-.18-1-.05-1.93-.26-2.7-.12-.41-.57-.69-.62-1.09-.16-1.38.19-2.75.08-4.34,1.13-.77,1.6,0,2.22-.77s.13-.82,0-1.08.33-.51.33-.54c-.1-1.17-1.22-2-.58-2.71s4.75-.36,5.69-.72,1-.35.66-1.6c-.43-1.42-.49-1.13-.92-1.64-.18-.23-.14-.62-.3-.82s-.49-.37-.62-.55-.1-.54-.3-.83a16.8,16.8,0,0,1-1.85-2.46c-.32-.64-.25-1.43-.59-2.18s-1.62-1.77-1.53-3c1.18.18,3.22,1.4,5,1.17.44-.07.36-.41.63-.54.48-.21,1,.1,1.28-.25.51-.62,0-1.84-.58-3.26-.42-1-1.33-1.88-1.84-3-.22-.47-.12-1.16-.29-1.63,0-.1-.56-.39-.62-.55s.17-.79,0-1.08a11.52,11.52,0,0,0-.94-.83,10.51,10.51,0,0,1-.92-1.1c-.28-.43,0-.92-.28-1.35-.42-.59-.81-.45-1-.83s.39-.41.34-.8c0-.12-.58-.59-.62-.83a6.31,6.31,0,0,1,0-1.63c-.21-.59-1.18-1.26-1.54-2.18s-.31-3.14-.85-5.43c-.08-.34-.5-.75-.62-1.1s-.2-1-.29-1.35a12.9,12.9,0,0,1-.25-3.8c0-.86-.3-1.58-.27-2.17a19.35,19.35,0,0,1,.38-3.51s.58-.19.63-.26c.27-.37-.11-.58.33-.8s1,.27,1.26.29a8.27,8.27,0,0,0,1.26-.25c.42.14.68,1.21.92,1.36a8,8,0,0,0,.94.29,8.65,8.65,0,0,0,.95.29c3.71,1.07,4.53-1.82,4.18-4.53-.05-.34-.58-.36-.63-.55s.52-.4.33-.8c0-.07-.55-.21-.62-.28-.25-.24-.13-.51-.3-.83-.87-1.61,0-2.69-.55-4.33-.2-.53-1-.78-1.25-1.11a12.1,12.1,0,0,1-.61-1.63,7.61,7.61,0,0,1-.6-1.64c0-.72.47-1.13.35-1.88a2.18,2.18,0,0,0-.3-.81,10.26,10.26,0,0,1-.89-3c0-.42.58-.77.65-1.34a16.18,16.18,0,0,0-.28-1.9,19.53,19.53,0,0,1,.35-2.16c0-1.19-.75-.88-.29-1.63.57-.9.58-.62,1.91-.51a7.71,7.71,0,0,1,3.14.6c.4.16.75.1,1.26.29a7.52,7.52,0,0,0,2.19.84,5.73,5.73,0,0,0,4.09-1.26,5.24,5.24,0,0,1,.37-1.63,15.47,15.47,0,0,0,.67-1.61c.06-.38-.33-.87-.31-1.36.08-1,.67-2.18.69-3,0-.42-.34-.93-.29-1.35.1-.81.6-1.46.67-2.15,0-.52-.3-.61-.3-1.09s.36-1.19.35-1.62-.3-1.12-.29-1.63.37-1.08.34-1.62-.5-.86-.59-1.9c-.05-.33.34-.42.32-.72,0-.14-.15-.32-.3-.53a2.46,2.46,0,0,1-.2-.47c-.36-.45.17-2.67.24-4.54,0-.43-.32-.93-.27-1.45s.36-.87.36-1.32c0-.08-.46-.55-.46-.68-.11-1.3.46-2.27.54-3.22,0-.5-.29-1-.27-1.47.06-.84.53-1.5.5-1.83-.06-.69-.63-1-.56-1.55a4.31,4.31,0,0,1,1-2.53c.59-.46.77.53,1.83.49a7.26,7.26,0,0,0,1-.44l.87-.46a6.52,6.52,0,0,0,.8-1.75c.08-.37-.26-1-.18-1.72,0-.43.34-.87.35-1.32,0-.73-.36-1.52-.35-2.33,0-1.23.59-2.5.68-3.73,0-.33-.35-.83-.33-1.21.06-1.08.46-1.65.25-2.17s.53-4.44,1-4.8,2.49.33,2.94,0,.47-2.66.83-4.27c.21-1,.56-1.88.69-2.6.21-1,.4-4.3.66-4.87.46-1,1.68-1.23,2.17-1.94,1-1.49.8-3,1.33-5,.67-2.39,1.62-4.68,2.2-7,.32-1.26.34-2.75.75-4a13,13,0,0,0,1.07-3.93c0-.53-.39-1-.27-1.47a8.74,8.74,0,0,0,.59-1c.87-1.54.73-3.75,1.17-5.57.12-.52.56-1,.73-1.49s0-1.1.11-1.64c.24-.88.79-1.66,1-2.54.09-.37-.06-1,0-1.39.14-.54.56-.74.66-1.22s-.31-.93-.27-1.47c0-.32.44-.29.52-.7s-.25-1.47-.19-1.73.5-.25.51-.7c0-.64-.28-1.09-.18-1.74a20.35,20.35,0,0,0,.7-2.61c0-.38-.31-.59-.4-.95-.33-1.4.82-2.93.9-4.52,0-.71-.32-1.15-.19-1.73s.78-1.3.87-2c0-.39-.29-.85-.33-1.21a7,7,0,0,1,.05-1.39c0-.57.62-.9.73-1.49s-.2-1.32-.12-2a29.39,29.39,0,0,1,.62-3.47c.27-1.15,1.09-2.21,1.2-3.33.08-.69-.31-1.32-.1-2,.13-.49.81-1,1-1.41.48-1,.21-2.31,1.15-3.05A20.18,20.18,0,0,1,722.84,26c.47.87.71,1.84,1.19,2.84.14.26.36.44.46.68s0,.64.11.87c.3.47,1.17.86,1.31,1.19s-.43.9-.29,1.05a6.79,6.79,0,0,0,3.59,1.24s.63-.32.75-.36c.93-.34.72-.42,1.26-1.06.13-.16.59-.08.75-.35,0,0,.16-.69.29-1.06a11.64,11.64,0,0,0,.46-2.95c.22-1.59.81-3.27.83-4.26,0-.63-.3-.93-.26-1.47.19-2.58.76-4.81.4-6.33a11.81,11.81,0,0,1-.26-1.48c0-.4.43-1.16.42-1.56,0-.63-.39-.79-.32-1.21.15-.8.69-1,.73-1.48,0-.74-.37-1.55-.36-2.34a11.66,11.66,0,0,1,.57-2q9.62,2,19.14,4.32C825.14,28.07,892,63.77,933.13,101.55S989.59,179.19,987.19,207.78Z"/><path class="cls-1" d="M499.15,312.75a4.52,4.52,0,0,1,.66,2.89,5.34,5.34,0,0,1-.19,2.05c-.16.32-1.65,1-2,1.59a5.21,5.21,0,0,0,0,2.9c.48,1.41,2,3,2.91,4.57.61,1.05,1,2.12,1.48,2.9.81,1.18,2,2.22,3,3.55.29.41.26,1.07.6,1.53s.82.23,1.11.58.41,1.29.76,1.76c.2.29.5.31.84.74,1.19,1.54,2.06,3.49,2.87,3.94,1.52.86,1.82,3.39,2.21,4.05a18.72,18.72,0,0,0,2,2.07c-10.77,8.35-22.51,16.93-34.87,24.74-26.45,16.69-55.68,29.81-78.9,35.26s-40.46,3.26-56.48-2.1a183.51,183.51,0,0,1-35.6-16.9c-4.78-3,.42-.51,10.55,2.54s25.14,6.66,39.43,6.57,27.86-3.86,44.54-13.25,36.43-24.39,62.62-45.74C476.76,330.76,487.81,321.58,499.15,312.75Z"/><path class="cls-1" d="M801.85,343.69c5.53,4.32-5.94,11.66-16.54,19.86S765,380.76,749.83,397c-7.58,8.15-16.5,18.12-26.51,28.6-1.21-1.58-2.18-3.62-3.44-4.68-.77-.65-2.14-.79-2.9-1.44-.33-.27-.22-1.28-.59-1.64s-.69-.08-1-.21a5.24,5.24,0,0,1-2-1.83c-.38-.56-.34-1.38-.76-1.85s-1.23-.58-1.72-1c-.68-.63-1.27-1.62-2.11-2.46-1.63-1.6-3.65-2.93-4.73-4.5-.2-.28-.16-1-.4-1.44-.5-.95-1.35-1.5-1.36-2.05,0-.12.66-1.06.85-1.44a5.16,5.16,0,0,0,.85-2.86c.06-1.36.23-1.85-.22-2.68a17.87,17.87,0,0,0-1.65-2.26c15.27-15.82,31.26-30.73,46.25-39.83C773.75,338,796.31,339.36,801.85,343.69Z"/><path class="cls-1" d="M303.19,344.82c-11,7.65-28.13,21.35-44.17,34.77s-31,26.58-46.61,35.9-31.8,14.79-46,14.69-26.31-5.79-31.74-7.68-4.15,0,5.42,5.64,27.43,14.95,49.74,13.06,49.06-15,67.3-29.67,27.94-31,36-42,14.56-16.65,19.44-21.69,8.15-9.48,7.33-10.88-5.76.2-16.77,7.85Z"/></g></g></svg>