<svg width="49" height="49" viewBox="0 0 49 49" fill="none" xmlns="http://www.w3.org/2000/svg">
<g clip-path="url(#clip0)">
<path d="M12.0453 48.8169C8.44647 48.5609 6.56502 47.2636 5.59868 45.824C5.7839 42.3193 6.32051 37.954 7.8286 33.9924C8.69317 31.7238 9.92013 29.67 11.4253 28.1604C13.071 26.3609 14.5916 24.9763 16.1237 23.8345C19.148 21.5946 21.8011 20.6189 22.6407 20.2756C23.49 19.948 25.0127 19.3321 26.8553 18.6464C28.6921 18.0174 30.9168 17.1071 32.8158 15.9943C36.7091 13.8654 39.9361 11.463 39.931 11.4621C39.9375 11.463 36.4872 13.3753 32.4783 14.9625C30.4556 15.8248 28.389 16.3916 26.46 16.8381C24.5617 17.3264 22.9585 17.8235 22.0756 18.165C20.4247 18.8543 10.5336 22.0193 5.48155 32.6288C4.33878 35.3386 3.62207 38.1419 3.15793 40.7686C2.0159 40.124 0.594203 38.8765 0.206933 36.5676C-0.468042 32.5449 -0.0924862 20.4739 10.8462 13.7684C21.7857 7.0637 33.999 8.40375 39.8438 6.43735C45.688 4.47094 48.0108 0 48.0108 0C48.0108 0 43.1403 45.5086 12.0453 48.8169Z" fill="#7FFF00"/>
</g>
<defs>
<clipPath id="clip0">
<rect width="48.0108" height="48.8169" fill="white"/>
</clipPath>
</defs>
</svg>
