<svg xmlns="http://www.w3.org/2000/svg" viewBox="0 0 1040.63 385.86"><defs><style>.cls-1{fill:#1d1d1b;}.cls-2,.cls-3{fill:#e20613;}.cls-3{fill-rule:evenodd;}</style></defs><g id="Capa_2" data-name="Capa 2"><g id="Recursos"><path class="cls-1" d="M340.18,167.64a82.33,82.33,0,0,1,33.12,6.44,60.77,60.77,0,0,1,28.09,24.21c6.39,10.47,9.77,23,9.77,37,0,13.75-3.3,28.95-10.25,44.88-12.73,29.15-35.54,55.48-62.12,74.48-26.79,19.15-57.59,31-86.06,31a82.33,82.33,0,0,1-33.12-6.45A60.77,60.77,0,0,1,191.52,355c-6.39-10.47-9.77-23-9.77-37,0-13.75,3.3-28.95,10.25-44.88,12.73-29.14,35.54-55.47,62.12-74.48,26.79-19.15,57.59-31,86.06-31Zm26.05,22.67c-7.29-3.18-16-4.92-26.05-4.92-24.73,0-51.88,10.58-75.79,27.67-24.11,17.23-44.73,41-56.15,67.13-5.92,13.55-8.73,26.35-8.73,37.8,0,10.72,2.47,20.15,7.13,27.8a43.4,43.4,0,0,0,20,17.2c7.29,3.18,16,4.92,26,4.92,24.73,0,51.88-10.58,75.79-27.67,24.11-17.23,44.73-41,56.16-67.13,5.92-13.55,8.72-26.35,8.72-37.8,0-10.72-2.47-20.15-7.13-27.79a43.36,43.36,0,0,0-20-17.21Z"/><path class="cls-2" d="M293,238.69a5.91,5.91,0,0,1,10.73,4.95l-14,30.13L357,244.27a5.9,5.9,0,0,1,4.71,10.82l-81.22,35.67a5.91,5.91,0,0,1-8-7.78L293,238.69Z"/><path class="cls-1" d="M959.33,217.5a63.75,63.75,0,0,1,25.64,5,47.19,47.19,0,0,1,21.8,18.8c5,8.12,7.58,17.86,7.58,28.69,0,10.62-2.54,22.36-7.91,34.65-9.81,22.45-27.37,42.72-47.83,57.36-20.64,14.75-44.38,23.87-66.34,23.87a63.74,63.74,0,0,1-25.63-5,47.19,47.19,0,0,1-21.8-18.8c-5-8.12-7.58-17.86-7.58-28.69,0-10.62,2.54-22.36,7.91-34.65C855,276.28,872.54,256,893,241.37c.8-.56,1.59-1.12,2.4-1.67l-17.87-43.55c-6.51,46-14.46,72.06-55.76,106,10.76-23.71,2.49-7.14,14.43-27.58,20.68-35.42,20-59.1,21.83-99.66a11.08,11.08,0,0,1,6.85-9.55l-4.06-9.89a7.37,7.37,0,1,1,13.64-5.61l33.67,82.06c16.66-9.07,34.45-14.38,51.2-14.38Zm46.28,7.4c18.79,9,25.71,12.67,32.19,31.84,10.09,29.86-7.88,63.52-36.81,86.9,6.23-12.07,15.27-26,19.48-38,12.68-36.27,8.78-53.39-14.86-80.73Zm-57.43,37.24a27.78,27.78,0,0,1,10.16,3,21.59,21.59,0,0,1,9.52,10,27.07,27.07,0,0,1,2.14,14.4,44.47,44.47,0,0,1-5.25,16.14A68.37,68.37,0,0,1,940.44,331c-10,6.14-21.13,9.42-31,8.38a27.34,27.34,0,0,1-10.16-3,21.59,21.59,0,0,1-9.53-10A27.2,27.2,0,0,1,887.63,312a44.5,44.5,0,0,1,5.24-16.14,66.72,66.72,0,0,1,17.22-20.35l-9-21.82c-18.22,13.13-33.79,31.12-42.44,50.93-4.51,10.31-6.64,20.05-6.64,28.75,0,8.11,1.86,15.24,5.38,21a32.66,32.66,0,0,0,15.1,12.95,49.11,49.11,0,0,0,19.73,3.72c18.84,0,39.54-8.06,57.78-21.1,18.41-13.16,34.15-31.27,42.86-51.23,4.51-10.31,6.64-20.05,6.64-28.75,0-8.11-1.86-15.24-5.38-21a32.67,32.67,0,0,0-15.1-13,49.34,49.34,0,0,0-19.74-3.71c-14.74,0-30.61,4.93-45.56,13.32l9,21.85c8.46-4.14,17.38-6.18,25.45-5.33Zm7.38,8.2a21.53,21.53,0,0,0-8-2.32c-7.06-.75-15,1.14-22.6,4.93L935.27,298a7.37,7.37,0,0,1-13.64,5.61l-9.2-22.42a60.42,60.42,0,0,0-14.35,17.43,38.52,38.52,0,0,0-4.58,14,21.39,21.39,0,0,0,1.6,11.31,15.73,15.73,0,0,0,7,7.3,21.53,21.53,0,0,0,8,2.32c8.54.9,18.36-2.05,27.32-7.55a62.47,62.47,0,0,0,22.18-23.08,38.47,38.47,0,0,0,4.57-14,21.32,21.32,0,0,0-1.6-11.31,15.73,15.73,0,0,0-7-7.29Z"/><path class="cls-3" d="M283.48,145.09c6.16-4.44,13-10.33,13.81-20s-4.4-23.25-18.37-36.08-36.68-25-61-31-50.17-6-69.39-7.07-31.76-3.24-40.63-6.06-14-6.27-18-9.94-6.68-7.55-7.81-8.47-.64,1.12,1.24,5.41,5.17,10.83,10,16a47.64,47.64,0,0,0,17,11.25,76.48,76.48,0,0,0,12.88,3.43c2.13.52,1.35.91-4.82.5s-17.73-1.63-30.22-2.85-25.92-2.47-35.84-5S36,48.82,29.36,44.56,15.81,35.59,10.79,30,2.61,17.72,1,15.21s-1.6-1,1.83,6.76S13.19,43.58,24.63,54.28s27.43,18.2,46.15,23.18,40.16,7.44,56.56,9.19,27.73,2.76,33.88,3.31,7.1.62-1.19,1.11-25.83,1.38-40.38,1.23a216.78,216.78,0,0,1-36.37-3.2,161.62,161.62,0,0,1-26.21-6.84c-7-2.53-12-5.14-14.08-5.93s-1.23.21,6.09,5.22,21.12,14,36,19.76,30.75,8.24,42.52,9.77,19.38,2.11,25.92,2.08,12-.68,14.54-.88,2.18,0-1.83,1.06A148.58,148.58,0,0,1,146.33,117,134.79,134.79,0,0,1,121,117a166.74,166.74,0,0,1-20.39-3.13c-4.31-1-5.12-1.47-1,.59a115.17,115.17,0,0,0,23.89,9.41c10.76,2.71,23.23,3.49,32.63,3.48s15.72-.81,20.29-.13a15.17,15.17,0,0,1,8.32,3.77c.9.93-.15.63-3.23.62a41.91,41.91,0,0,0-15.1,2.81c-6.89,2.54-15.52,7.34-20.14,12.56a23.63,23.63,0,0,0-5.56,13.17c-.34,2.31-.42,1.3,1.76-1.62a34.25,34.25,0,0,1,14.56-11,62.55,62.55,0,0,1,29-3.81c9.77,1.16,17.94,5.17,24.49,8.37s11.47,5.58,20.5,6,22.17-1.08,31.47-3.32a54.19,54.19,0,0,0,21-9.66Z"/><path class="cls-3" d="M249.94,56.79c.16-2.38-3.77-9-12.94-13.18s-23.59-6-34.94-7.69-19.65-3.18-25.82-5.21S166,26.15,162.7,22.59a48.38,48.38,0,0,1-7.39-11.4C153.76,8,153.19,6.08,153.53,8a62.47,62.47,0,0,0,3.93,12.8,33.06,33.06,0,0,0,12.42,14.64c6.69,4.57,16.68,8.89,26.93,11.69s20.76,4.08,28.21,5.23a95.4,95.4,0,0,1,16.18,3.59c4.32,1.42,8.57,3.25,8.74.87Z"/><path class="cls-3" d="M155.17,37.73c-4.12-2-11-4.72-17.69-7.2s-13.06-4.69-18.43-7.73S109.34,15.9,107,11.7,104.28,3,103.93,1s-.7-1.23-.76,2.54.2,10.61,4.5,16.88,12.66,12,20.07,14.89,13.85,3,18.45,3.58a59.39,59.39,0,0,1,9.67,2.1c2.31.59,4.16.81,4.44.34s-1-1.67-5.13-3.64Z"/><path class="cls-1" d="M741.59,190.42l-40.13,91.31h59L783.16,230H747.85a5.18,5.18,0,0,1-5.18-5.18v-.26l-1.09-34.15ZM610.36,85.21a5.91,5.91,0,0,1-.78-11.8l6.92-.47,3.64-8.85a7.37,7.37,0,0,1,13.64,5.6L633,71.51c4.37-.5,8.68-1.1,12.89-1.88a128.64,128.64,0,0,0,16.44-4.14,75.36,75.36,0,0,0,12.77-5.38,32.16,32.16,0,0,0,8-6,8.1,8.1,0,0,0,2.37-4.06,2.21,2.21,0,0,0-.88-1.83c-1.25-1.15-3.42-2.14-6.57-2.85a66.65,66.65,0,0,0-13-1.23,138.5,138.5,0,0,0-17.4.93A106.7,106.7,0,0,0,626.08,50H626a5.91,5.91,0,1,1-3.37-11.33h0a116.48,116.48,0,0,1,23.61-5.3,152.71,152.71,0,0,1,18.88-1,78.76,78.76,0,0,1,15.49,1.52c5.28,1.18,9.26,3.17,12,5.67a13.51,13.51,0,0,1,4.63,11.77c-.4,3.7-2.28,7.39-5.43,10.81a43.61,43.61,0,0,1-11,8.28A87.35,87.35,0,0,1,666,76.73a141.06,141.06,0,0,1-18,4.51c-6.11,1.13-12.39,1.91-18.75,2.51l-1.37.13L543.25,289.71a7.38,7.38,0,0,1-13.65-5.6l56.19-136.54L416,167.73a66.13,66.13,0,0,1,16.61,15.35c18.56,23.53,17.95,55.71,4.45,84.88a30.25,30.25,0,0,1,7.17,2L461,241.42l-.51-.18a16.56,16.56,0,0,1-7.17-5,2.62,2.62,0,0,1-.22-.25,16.46,16.46,0,0,1-3.41-8.41,26.38,26.38,0,0,1,.56-8.36,52.15,52.15,0,0,1,2-6.79,35.49,35.49,0,0,1,2-4.6,10.67,10.67,0,0,1,2.69-3.36c2.26-1.77,3.71-1.77,13.17-1.77h38.53a4.2,4.2,0,0,1,0,8.39H470.08c-7,0-7.95-.06-8,0a2.94,2.94,0,0,0-.53.77,26.37,26.37,0,0,0-1.46,3.46,42.91,42.91,0,0,0-1.69,5.66,18.52,18.52,0,0,0-.43,5.68,8.21,8.21,0,0,0,1.64,4.15l.14.19a8.25,8.25,0,0,0,3.55,2.37,18.63,18.63,0,0,0,7.07.89,28.31,28.31,0,0,0,8.43-1.71,35,35,0,0,0,7.07-3.64,51.92,51.92,0,0,0,7.27-5.82,44.09,44.09,0,0,0,4.19-4.53c1.19-1.48,2.12-2.81,3-4.13a4.18,4.18,0,1,1,6.85,4.79c-1.06,1.51-2.12,3-3.37,4.58a54,54,0,0,1-4.94,5.36,60.45,60.45,0,0,1-8.46,6.76,43,43,0,0,1-8.76,4.49,37.42,37.42,0,0,1-9.14,2.08,5.9,5.9,0,0,1-.76,3.77L454,276.62a29.6,29.6,0,0,1,6.25,32.18c27.47-4.18,55.52-8.08,84.76-11.37,24.13-2.71,49.07-5,73.42-6.76a5.19,5.19,0,0,1-1.61-3.76,5.13,5.13,0,0,1,.61-2.44l24.35-55.41-21.09-.35a5.17,5.17,0,0,1-3.72-8.66h0L668.49,164a5.15,5.15,0,0,1,3.8-1.67H811.08a5.17,5.17,0,0,1,5.17,5l5.83,57a5.16,5.16,0,0,1-4.62,5.66,4.53,4.53,0,0,1-.52,0h-22.5l-25.9,59,0,0c17.63,1.38,31.8,3.24,42.49,5,20.91,3.49,28.52,6.67,36.13,9.86C829,305.77,810.82,307.65,792,313s-38.25,14.05-57.7,22.78l39.2-28.44c-10.34-1.69-20.67-3.38-49.1-4.2s-74.95-.79-123.64,1.5-99.54,6.83-135.72,9.9l-8.47.72a30.24,30.24,0,0,1-45,3.61c-9.14.7-17.45,1.32-25.75,1.94q11.92-2,23.85-3.93a29.8,29.8,0,0,1-4.31-6.53c-1.92,1.7-3.9,3.36-5.92,4.95q2.4-4,4.69-7.88a29.42,29.42,0,0,1-1.73-10,29.82,29.82,0,0,1,21.42-28.53,105.65,105.65,0,0,0,6.44-37c.07-45.43-15.51-59.89-64.83-74.94a156.24,156.24,0,0,1,22.43,1.18L370.15,111c-14.16,1.76-27.31,3-33.4,3.74-14.13,0-24.18-9.15-22.43-20.43s14.62-20.43,28.76-20.43c19.08,2.68,72.93,7.85,77.45,24.83-4.08,4.73-21.51,8.27-39.73,10.87l17.13,45.54a5.21,5.21,0,0,1-.59,4.81c.56.13,1.11.28,1.66.43a7.39,7.39,0,0,1,6.44-6.27l186.79-22.18,19.25-46.78-1.12.08Zm42.64,144-23.06,52.48h60.24l36.4-82.83L702.3,228.05a5.14,5.14,0,0,1-4.14,2L653,229.25Zm42.86-9.59,39.13-47H674.55l-42.18,45.9,63.49,1.08Zm110.55-47H751.35l1.5,47h58.36l-4.8-47Z"/></g></g></svg>