<svg width="44" height="44" viewBox="0 0 44 44" fill="none" xmlns="http://www.w3.org/2000/svg">
<path d="M7.89138 3.50723C5.48015 3.50723 3.50732 5.48006 3.50732 7.89129V35.9493C3.50732 38.3605 5.48015 40.3333 7.89138 40.3333H22.6499C22.7458 40.3504 22.8417 40.3504 22.9376 40.3333H27.9108C28.0067 40.3504 28.1026 40.3504 28.1985 40.3333H35.9494C38.3606 40.3333 40.3334 38.3605 40.3334 35.9493V7.89129C40.3334 5.48006 38.3606 3.50723 35.9494 3.50723H7.89138ZM7.89138 5.26086H35.9494C37.4118 5.26086 38.5798 6.4288 38.5798 7.89129V35.9493C38.5798 37.4118 37.4118 38.5797 35.9494 38.5797H28.9349V26.3043H32.2846L33.5141 20.1667H28.9349V18.413C28.9349 17.9232 28.9828 17.8856 29.1438 17.7794C29.3082 17.6732 29.8151 17.5362 30.6885 17.5362H33.3189V12.6007L32.8189 12.361C32.8189 12.361 30.8049 11.3985 28.0581 11.3985C26.0852 11.3985 24.4652 12.1829 23.4274 13.481C22.3896 14.7791 21.9204 16.5121 21.9204 18.413V20.1667H19.2899V26.3043H21.9204V38.5797H7.89138C6.42889 38.5797 5.26095 37.4118 5.26095 35.9493V7.89129C5.26095 6.4288 6.42889 5.26086 7.89138 5.26086ZM28.0581 13.1522C29.8802 13.1522 31.0276 13.5529 31.5653 13.7652V15.7826H30.6885C29.6781 15.7826 28.8698 15.8648 28.1916 16.3066C27.51 16.7519 27.1812 17.591 27.1812 18.413V21.9203H31.3701L30.846 24.5507H27.1812V38.5797H23.674V24.5507H21.0436V21.9203H23.674V18.413C23.674 16.8067 24.0816 15.4709 24.7974 14.577C25.5132 13.683 26.5236 13.1522 28.0581 13.1522Z" fill="#EB2629"/>
</svg>
