<svg width="44" height="45" viewBox="0 0 44 45" fill="none" xmlns="http://www.w3.org/2000/svg">
<path d="M21.9201 2C10.7922 2 1.75366 11.0386 1.75366 22.1664C1.75366 25.7421 2.73321 29.0815 4.37036 31.9927L1.78791 41.2197C1.70229 41.5211 1.78449 41.843 2.00026 42.0656C2.21946 42.2917 2.53799 42.3807 2.84281 42.3054L12.4602 39.9216C15.2858 41.432 18.4951 42.3328 21.9201 42.3328C33.0479 42.3328 42.0865 33.2942 42.0865 22.1664C42.0865 11.0386 33.0479 2 21.9201 2ZM21.9201 3.7536C32.0992 3.7536 40.3329 11.9873 40.3329 22.1664C40.3329 32.3455 32.0992 40.5792 21.9201 40.5792C18.656 40.5792 15.6009 39.7298 12.9431 38.2399C12.7479 38.1337 12.5219 38.1029 12.3027 38.1543L3.88059 40.2435L6.13766 32.1845C6.20616 31.955 6.17191 31.7084 6.05204 31.4995C4.43886 28.7629 3.50726 25.5777 3.50726 22.1664C3.50726 11.9873 11.741 3.7536 21.9201 3.7536ZM14.594 11.6448C14.0289 11.6448 13.2274 11.8537 12.5698 12.5661C12.1725 12.9908 10.5217 14.6006 10.5217 17.4262C10.5217 20.3751 12.5664 22.9165 12.813 23.2453H12.8164C12.7924 23.2144 13.1281 23.7042 13.5802 24.2899C14.0289 24.8721 14.6591 25.6428 15.4502 26.475C17.0292 28.1396 19.252 30.0644 22.0125 31.2426C23.2832 31.7804 24.2867 32.1092 25.0471 32.3489C26.4513 32.7907 27.7357 32.7222 28.6981 32.5818C29.4174 32.4756 30.212 32.1263 30.9963 31.6297C31.7806 31.1365 32.5513 30.5165 32.8903 29.5815C33.1301 28.9068 33.2534 28.2869 33.3013 27.7765C33.3219 27.5197 33.3253 27.2936 33.3082 27.0847C33.2911 26.8758 33.3082 26.7148 33.1164 26.3963C32.7054 25.725 32.243 25.7078 31.7635 25.4715C31.4929 25.3379 30.7292 24.9646 29.9654 24.6016C29.2016 24.2351 28.5406 23.9131 28.133 23.7693C27.8727 23.6734 27.5576 23.5398 27.1055 23.5946C26.6534 23.646 26.2047 23.9714 25.9444 24.3584C25.6944 24.7249 24.7012 25.8996 24.3963 26.2456C24.3929 26.2421 24.4203 26.2558 24.3004 26.1976C23.9237 26.0092 23.4647 25.8517 22.7866 25.4921C22.105 25.1359 21.2556 24.605 20.3274 23.7864V23.783C18.9403 22.5671 17.971 21.0361 17.6662 20.5224C17.6868 20.4984 17.6628 20.5292 17.7073 20.4847L17.7107 20.4813C18.0224 20.1765 18.2998 19.8066 18.5327 19.536C18.865 19.1558 19.0122 18.8167 19.1698 18.5016C19.4849 17.8749 19.3102 17.1864 19.1287 16.82C19.139 16.8439 19.0294 16.5973 18.9095 16.3131C18.7862 16.0288 18.6321 15.6589 18.4711 15.265C18.1423 14.4807 17.7758 13.597 17.5566 13.0764C17.2997 12.4668 16.9538 12.0284 16.4983 11.816C16.0428 11.6037 15.642 11.6653 15.6283 11.6619H15.6249C15.2995 11.6482 14.9468 11.6448 14.594 11.6448ZM14.594 13.3984C14.9296 13.3984 15.2653 13.4018 15.5427 13.4155C15.8304 13.4292 15.8133 13.4326 15.7585 13.4052C15.7003 13.3778 15.7756 13.371 15.94 13.758C16.1524 14.2649 16.5223 15.152 16.8511 15.9432C17.0155 16.337 17.1696 16.7069 17.2929 16.9981C17.4162 17.2892 17.4813 17.4502 17.56 17.6077L17.5635 17.6111C17.6388 17.7584 17.632 17.6625 17.6046 17.7173C17.4196 18.0838 17.3956 18.1728 17.2073 18.3886C16.923 18.7174 16.6319 19.0839 16.4777 19.2346C16.3442 19.3682 16.101 19.5737 15.9503 19.9778C15.7962 20.3785 15.8681 20.9334 16.1113 21.3478C16.4366 21.8992 17.5052 23.6391 19.1664 25.1016C20.2144 26.0229 21.1871 26.636 21.9646 27.047C22.7455 27.4546 23.3791 27.6943 23.5195 27.7663C23.8586 27.9341 24.2251 28.0642 24.6532 28.0129C25.0848 27.9581 25.4512 27.7012 25.6876 27.434C26.0027 27.0778 26.9308 26.0161 27.3761 25.3619C27.3966 25.3688 27.3898 25.3619 27.5371 25.4167V25.4201H27.5405C27.609 25.4441 28.455 25.8209 29.2119 26.1839C29.9688 26.5435 30.736 26.9169 30.9826 27.0402C31.3457 27.2183 31.5135 27.3347 31.558 27.3347C31.5614 27.4135 31.5649 27.4957 31.5512 27.6224C31.5238 27.9752 31.4279 28.4615 31.2395 28.9856C31.147 29.239 30.6675 29.7665 30.0579 30.1501C29.4516 30.5337 28.7153 30.8042 28.4413 30.8453C27.6193 30.9652 26.6431 31.0097 25.5711 30.6741C24.8279 30.4412 23.8997 30.1398 22.701 29.6295C20.2658 28.5883 18.1971 26.8244 16.7209 25.2694C15.9811 24.4886 15.3886 23.7659 14.9673 23.2179C14.5495 22.6699 14.3645 22.3856 14.2104 22.1869V22.1835C13.9398 21.8239 12.2753 19.512 12.2753 17.4262C12.2753 15.2205 13.2993 14.354 13.8542 13.758C14.1453 13.4429 14.4638 13.3984 14.5906 13.3984H14.594Z" fill="#EB2629"/>
</svg>
