<svg width="44" height="45" viewBox="0 0 44 45" fill="none" xmlns="http://www.w3.org/2000/svg">
<path d="M14.0289 2.87683C7.74396 2.87683 2.63037 7.99042 2.63037 14.2754V30.058C2.63037 36.3429 7.74396 41.4565 14.0289 41.4565H29.8115C36.0965 41.4565 41.2101 36.3429 41.2101 30.058V14.2754C41.2101 7.99042 36.0965 2.87683 29.8115 2.87683H14.0289ZM14.0289 4.63045H29.8115C35.1478 4.63045 39.4565 8.93916 39.4565 14.2754V30.058C39.4565 35.3942 35.1478 39.7029 29.8115 39.7029H14.0289C8.6927 39.7029 4.38399 35.3942 4.38399 30.058V14.2754C4.38399 8.93916 8.6927 4.63045 14.0289 4.63045ZM32.442 9.89132C31.4727 9.89132 30.6883 10.6757 30.6883 11.6449C30.6883 12.6142 31.4727 13.3986 32.442 13.3986C33.4113 13.3986 34.1956 12.6142 34.1956 11.6449C34.1956 10.6757 33.4113 9.89132 32.442 9.89132ZM21.9202 12.5218C16.6046 12.5218 12.2753 16.851 12.2753 22.1667C12.2753 27.4824 16.6046 31.8116 21.9202 31.8116C27.2359 31.8116 31.5652 27.4824 31.5652 22.1667C31.5652 16.851 27.2359 12.5218 21.9202 12.5218ZM21.9202 14.2754C26.2872 14.2754 29.8115 17.7998 29.8115 22.1667C29.8115 26.5336 26.2872 30.058 21.9202 30.058C17.5533 30.058 14.0289 26.5336 14.0289 22.1667C14.0289 17.7998 17.5533 14.2754 21.9202 14.2754Z" fill="#EB2629"/>
</svg>
