<svg width="44" height="44" viewBox="0 0 44 44" fill="none" xmlns="http://www.w3.org/2000/svg">
<g clip-path="url(#clip0)">
<path d="M30.083 4.79507C24.8392 4.79507 20.575 9.05926 20.575 14.303C20.575 14.6181 20.6538 14.9264 20.6846 15.2346C14.201 14.6147 8.46751 11.491 4.57324 6.7131C4.39171 6.48362 4.11085 6.36032 3.8163 6.38087C3.52517 6.40142 3.26487 6.56925 3.12102 6.8227C2.30243 8.2304 1.8332 9.85044 1.8332 11.5904C1.8332 13.6968 2.58671 15.6251 3.75122 17.2074C3.52517 17.1081 3.27857 17.0533 3.06622 16.9334C2.79564 16.7896 2.47026 16.7964 2.20653 16.954C1.9428 17.1115 1.78182 17.3958 1.7784 17.7006V17.8102C1.7784 21.0401 3.44982 23.8452 5.91585 25.5646C5.88845 25.5611 5.86105 25.5714 5.83365 25.5646C5.53225 25.5132 5.22742 25.6194 5.02534 25.8488C4.82326 26.0783 4.75819 26.3968 4.84724 26.688C5.8268 29.7328 8.32708 32.0584 11.4233 32.9078C8.95729 34.3738 6.09738 35.2369 3.01141 35.2369C2.34353 35.2369 1.70305 35.2026 1.06599 35.1273C0.654984 35.0725 0.261103 35.3122 0.124102 35.7027C-0.0163253 36.0931 0.137802 36.5281 0.490581 36.7439C4.44651 39.2819 9.14225 40.7718 14.1908 40.7718C22.3732 40.7718 28.7917 37.3536 33.097 32.4694C37.4023 27.5853 39.6457 21.2421 39.6457 15.3168C39.6457 15.0668 39.6251 14.8236 39.6183 14.577C41.2246 13.3474 42.6597 11.9055 43.7831 10.2203C44.0058 9.89497 43.9818 9.45999 43.7249 9.15858C43.4715 8.85718 43.0433 8.7647 42.6871 8.93253C42.235 9.13461 41.7076 9.15516 41.2349 9.31613C41.8583 8.48385 42.3926 7.58649 42.7145 6.5761C42.8241 6.23017 42.7043 5.84999 42.42 5.62394C42.1357 5.40131 41.7384 5.37391 41.4267 5.56228C39.93 6.44937 38.2723 7.07273 36.5221 7.45291C34.8232 5.86369 32.5867 4.79507 30.083 4.79507ZM30.083 6.5487C32.3195 6.5487 34.3403 7.50429 35.7548 9.01473C35.9672 9.23393 36.2789 9.32641 36.5769 9.26133C37.7208 9.03528 38.8066 8.70305 39.8649 8.27492C39.2552 9.09693 38.5017 9.79907 37.6181 10.3299C37.2173 10.5252 37.029 10.9876 37.1762 11.4088C37.3201 11.8267 37.7585 12.0699 38.1935 11.974C39.0703 11.8678 39.8512 11.5116 40.6869 11.289C39.9368 12.1007 39.1148 12.8337 38.2209 13.481C37.9777 13.6591 37.8441 13.9468 37.8647 14.2482C37.8784 14.6044 37.8921 14.9572 37.8921 15.3168C37.8921 20.7969 35.7891 26.7462 31.7818 31.2912C27.7745 35.8363 21.8903 39.0181 14.1908 39.0181C10.6938 39.0181 7.39205 38.2441 4.40883 36.8809C8.10788 36.5966 11.5192 35.2883 14.273 33.1271C14.5607 32.8976 14.6737 32.514 14.5572 32.1646C14.4408 31.8153 14.1188 31.5755 13.7524 31.5652C10.8616 31.5139 8.44011 29.8322 7.14887 27.4552C7.19682 27.4552 7.23792 27.4552 7.28587 27.4552C8.15241 27.4552 9.00867 27.3456 9.8067 27.1264C10.1903 27.0133 10.454 26.6571 10.4403 26.2564C10.4266 25.8557 10.1424 25.5132 9.7519 25.4275C6.63169 24.7973 4.29238 22.256 3.75122 19.0981C4.63489 19.4029 5.5391 19.6426 6.51866 19.6735C6.91939 19.6974 7.28244 19.4474 7.40575 19.0672C7.52905 18.6871 7.37835 18.2692 7.03927 18.0569C4.95684 16.6629 3.58682 14.2893 3.58682 11.5904C3.58682 10.5903 3.84713 9.67234 4.18963 8.79553C8.57369 13.6077 14.7114 16.8033 21.6437 17.1526C21.9177 17.1663 22.1848 17.0533 22.3629 16.8444C22.541 16.632 22.6095 16.3512 22.5479 16.084C22.4143 15.5155 22.3287 14.9127 22.3287 14.303C22.3287 10.008 25.788 6.5487 30.083 6.5487Z" fill="#EB2629"/>
</g>
<defs>
<clipPath id="clip0">
<rect width="43.8406" height="43.8406" fill="white" transform="translate(0.0795898)"/>
</clipPath>
</defs>
</svg>
