<svg width="63" height="30" viewBox="0 0 63 30" fill="none" xmlns="http://www.w3.org/2000/svg">
<g clip-path="url(#clip0)">
<path d="M20.5946 13.1554C21.2827 13.1432 21.9654 13.3083 22.5997 13.6405C23.3054 14.0131 23.8999 14.6507 24.3002 15.4642C24.6871 16.2529 24.8917 17.1967 24.8917 18.2513C24.8917 19.287 24.6919 20.432 24.2712 21.6319C23.5005 23.8277 22.1196 25.811 20.5104 27.2423C18.8885 28.6848 17.0239 29.5774 15.3003 29.5774C14.6122 29.5894 13.9295 29.424 13.2952 29.0915C12.5896 28.7191 11.9951 28.0818 11.5947 27.2686C11.2078 26.4799 11.0032 25.5361 11.0032 24.4815C11.0032 23.4458 11.203 22.3008 11.6237 21.1009C12.3944 18.9059 13.7753 16.9225 15.3845 15.4905C17.0063 14.048 18.871 13.1554 20.5946 13.1554ZM22.1716 14.8631C21.7303 14.6235 21.203 14.4925 20.5946 14.4925C19.0974 14.4925 17.4537 15.2894 16.0062 16.5768C14.5466 17.8746 13.2983 19.6651 12.6069 21.6334C12.2485 22.6541 12.0784 23.6183 12.0784 24.4808C12.0784 25.2883 12.2279 25.9986 12.51 26.5749C12.7958 27.1526 13.219 27.6054 13.7208 27.8705C14.1622 28.11 14.6895 28.2411 15.2949 28.2411C16.792 28.2411 18.4357 27.4441 19.8832 26.1568C21.3428 24.8589 22.5912 23.0684 23.2832 21.1001C23.6416 20.0794 23.8111 19.1153 23.8111 18.2528C23.8111 17.4453 23.6615 16.7349 23.3794 16.1594C23.0938 15.5813 22.6706 15.1282 22.1686 14.8631H22.1716Z" fill="white"/>
<path d="M17.7382 18.5078C17.7793 18.4034 17.8516 18.3232 17.9397 18.2842C18.0277 18.2453 18.1245 18.2508 18.2094 18.2995C18.2942 18.3482 18.3604 18.4363 18.3937 18.5449C18.4271 18.6535 18.4249 18.774 18.3878 18.8807L17.5402 21.1503L21.6128 18.9281C21.6997 18.8811 21.798 18.8789 21.8861 18.9221C21.9743 18.9652 22.0451 19.0502 22.0829 19.1583C22.1207 19.2663 22.1225 19.3887 22.0878 19.4984C22.0531 19.6081 21.9848 19.6961 21.8979 19.7432L16.9809 22.4301C16.9145 22.4714 16.8394 22.4859 16.766 22.4718C16.6927 22.4576 16.6247 22.4154 16.5715 22.351C16.5183 22.2866 16.4825 22.2032 16.469 22.1124C16.4556 22.0216 16.4652 21.9278 16.4965 21.844L17.7382 18.5078Z" fill="#E20613"/>
<path d="M58.0782 16.9115C58.6109 16.9023 59.1395 17.0306 59.6304 17.2881C60.1782 17.5776 60.6396 18.0727 60.9502 18.7042C61.2529 19.3159 61.4091 20.0496 61.4091 20.8654C61.4091 21.6653 61.2553 22.5497 60.9302 23.4754C60.3363 25.1665 59.2732 26.6934 58.0346 27.7962C56.785 28.9072 55.3478 29.5942 54.0183 29.5942C53.4858 29.6033 52.9575 29.475 52.4667 29.2176C51.919 28.9281 51.4576 28.433 51.1469 27.8014C50.8442 27.1898 50.688 26.4561 50.688 25.6403C50.688 24.8404 50.8418 23.956 51.1669 23.0303C51.762 21.3392 52.8239 19.8115 54.0625 18.7095C54.111 18.6673 54.1588 18.6251 54.2078 18.5837L53.126 15.3032C52.7319 18.7683 52.2506 20.7313 49.7502 23.2879C50.4017 21.5019 49.901 22.75 50.6238 21.2104C51.8758 18.5423 51.8347 16.7585 51.9454 13.7033C51.9534 13.5471 51.9965 13.3968 52.0698 13.2696C52.1431 13.1424 52.2438 13.0434 52.3601 12.9839L52.1143 12.2389C52.092 12.1715 52.0806 12.0992 52.0808 12.0263C52.0809 11.9533 52.0926 11.8811 52.1152 11.8138C52.1378 11.7465 52.1708 11.6853 52.2123 11.6339C52.2539 11.5824 52.3032 11.5417 52.3574 11.5139C52.4116 11.4862 52.4697 11.472 52.5283 11.4722C52.587 11.4724 52.645 11.4869 52.6991 11.515C52.7532 11.5431 52.8023 11.5841 52.8437 11.6358C52.8851 11.6876 52.9178 11.7489 52.9401 11.8164L54.9785 17.9977C55.9871 17.3145 57.0641 16.9145 58.0782 16.9145V16.9115ZM60.88 17.4689C62.0175 18.1468 62.4365 18.4233 62.8288 19.8673C63.4396 22.1165 62.3517 24.652 60.6003 26.4132C60.9775 25.504 61.5247 24.4547 61.7796 23.5508C62.5473 20.8187 62.3112 19.5291 60.88 17.4696V17.4689ZM57.4032 20.274C57.6179 20.2996 57.8268 20.3763 58.0182 20.5C58.2714 20.6659 58.4739 20.9305 58.5946 21.2533C58.7166 21.5934 58.7614 21.9685 58.7241 22.338C58.6819 22.7649 58.574 23.1777 58.4063 23.5538C58.0575 24.3381 57.5502 24.9955 56.9346 25.461C56.3292 25.9236 55.6554 26.1706 55.0578 26.0923C54.8429 26.0676 54.634 25.9908 54.4427 25.8663C54.1893 25.7006 53.9866 25.436 53.8658 25.113C53.7448 24.7731 53.7005 24.3987 53.7374 24.0298C53.7795 23.603 53.8872 23.1902 54.0547 22.8141C54.3158 22.221 54.6703 21.6997 55.0972 21.2812L54.5523 19.6375C53.4493 20.6266 52.5066 21.9817 51.983 23.4739C51.7099 24.2505 51.581 24.9842 51.581 25.6396C51.581 26.2505 51.6936 26.7875 51.9067 27.2214C52.1225 27.657 52.442 27.9979 52.8209 28.1969C53.1992 28.3917 53.6059 28.4871 54.0153 28.4771C55.1559 28.4771 56.4091 27.87 57.5133 26.8877C58.6279 25.8964 59.5808 24.5323 60.1081 23.0287C60.3811 22.2521 60.5101 21.5184 60.5101 20.8631C60.5101 20.2522 60.3975 19.7151 60.1844 19.2812C59.969 18.8443 59.6495 18.502 59.2702 18.302C58.8915 18.1079 58.4847 18.0127 58.0752 18.0225C57.1828 18.0225 56.222 18.3939 55.3169 19.0259L55.8618 20.6718C56.374 20.3599 56.914 20.2063 57.4025 20.2703L57.4032 20.274ZM57.8499 20.8917C57.6992 20.7948 57.5347 20.7354 57.3656 20.717C56.9382 20.6605 56.4575 20.8028 55.9974 21.0883L56.6216 22.9753C56.6666 23.1115 56.6663 23.2644 56.6207 23.4004C56.5751 23.5364 56.488 23.6442 56.3785 23.7003C56.269 23.7563 56.1461 23.7559 56.0368 23.6992C55.9275 23.6425 55.8408 23.5341 55.7958 23.3978L55.2388 21.709C54.8855 22.0749 54.5908 22.5203 54.3701 23.022C54.224 23.348 54.1298 23.7061 54.0928 24.0765C54.0624 24.3662 54.0959 24.6607 54.1897 24.9285C54.2784 25.1648 54.4274 25.3581 54.6135 25.4784C54.7642 25.5753 54.9287 25.6347 55.0978 25.6531C55.6148 25.7209 56.2093 25.4987 56.7517 25.0844C57.3131 24.6598 57.7759 24.0607 58.0945 23.3459C58.2405 23.0198 58.3344 22.6617 58.3712 22.2913C58.4018 22.0016 58.3683 21.7071 58.2743 21.4393C58.1855 21.2033 58.0365 21.0103 57.8505 20.8902L57.8499 20.8917Z" fill="white"/>
<path fill-rule="evenodd" clip-rule="evenodd" d="M17.1619 11.4568C17.5348 11.1223 17.9489 10.6787 17.998 9.95025C18.047 9.22185 17.7316 8.19891 16.8858 7.23247C16.0401 6.26602 14.6652 5.3493 13.1929 4.89734C11.7205 4.44538 10.1556 4.44538 8.99199 4.36478C7.8284 4.28418 7.06923 4.12072 6.53224 3.9083C5.99524 3.69587 5.68467 3.436 5.44251 3.15955C5.20035 2.8831 5.0381 2.59083 4.96969 2.52153C4.90128 2.45223 4.93095 2.6059 5.04476 2.92905C5.15858 3.2522 5.35776 3.74484 5.65017 4.13428C5.94007 4.50584 6.29117 4.79493 6.67935 4.9817C6.93273 5.0959 7.19364 5.18235 7.45911 5.24007C7.58806 5.27924 7.54084 5.30862 7.1673 5.27774C6.79377 5.24685 6.09393 5.15495 5.33778 5.06305C4.58163 4.97116 3.76858 4.877 3.16802 4.68642C2.56746 4.49584 2.17939 4.20508 1.77741 3.88419C1.37542 3.5633 0.957086 3.20851 0.653174 2.78743C0.349262 2.36636 0.157955 1.86242 0.0604851 1.67335C-0.0369847 1.48428 -0.0363793 1.59802 0.171274 2.18256C0.378927 2.7671 0.798471 3.81037 1.49105 4.61637C2.18363 5.42236 3.15167 5.98731 4.28498 6.36244C5.4183 6.73757 6.71628 6.92287 7.70914 7.05469C8.702 7.18652 9.38792 7.2626 9.76024 7.30403C10.1326 7.34546 10.1901 7.35073 9.6882 7.38764C9.18632 7.42455 8.12445 7.49159 7.24359 7.48029C6.50549 7.47712 5.76893 7.39649 5.04174 7.23924C4.50216 7.12305 3.97138 6.9507 3.45498 6.72401C3.03119 6.53343 2.72849 6.33683 2.60257 6.27732C2.47665 6.21781 2.52811 6.29314 2.97126 6.67053C3.41441 7.04792 4.24987 7.7251 5.15071 8.15898C6.05155 8.59287 7.01232 8.77968 7.72488 8.89493C8.43744 9.01018 8.89815 9.05387 9.29408 9.05161C9.69002 9.04935 10.0206 9.00038 10.1743 8.98532C10.3281 8.97025 10.3063 8.98532 10.0635 9.06517C9.66747 9.19102 9.26495 9.28313 8.8588 9.34086C8.34877 9.40075 7.83534 9.40075 7.32531 9.34086C6.91033 9.29405 6.49806 9.2153 6.0909 9.10509C5.82997 9.02976 5.78093 8.99436 6.03036 9.14953C6.48972 9.45214 6.97484 9.6899 7.47667 9.85836C8.12808 10.0625 8.88301 10.1212 9.45209 10.1205C10.0212 10.1197 10.4038 10.0595 10.6805 10.1107C10.8678 10.1387 11.0437 10.2379 11.1841 10.3947C11.2386 10.4647 11.1751 10.4421 10.9886 10.4414C10.676 10.4413 10.3661 10.513 10.0744 10.6531C9.65732 10.8444 9.13486 11.206 8.85517 11.5992C8.66334 11.8787 8.54575 12.2252 8.51856 12.5912C8.49798 12.7652 8.49314 12.6891 8.62511 12.4692C8.85331 12.0989 9.15794 11.8125 9.50658 11.6406C10.0653 11.3736 10.667 11.2753 11.2622 11.3536C11.8537 11.441 12.3483 11.743 12.7449 11.9841C13.1414 12.2251 13.4393 12.4044 13.986 12.436C14.5326 12.4677 15.3281 12.3547 15.8912 12.186C16.3521 12.06 16.7857 11.8118 17.1625 11.4583L17.1619 11.4568Z" fill="#E20613"/>
<path fill-rule="evenodd" clip-rule="evenodd" d="M15.1315 4.80567C15.1412 4.62639 14.9033 4.12772 14.3481 3.81286C13.793 3.49799 12.92 3.3609 12.2328 3.2336C11.5457 3.10629 11.0432 2.99406 10.6697 2.84114C10.2961 2.68823 10.0497 2.49765 9.84996 2.22949C9.66911 1.97086 9.51849 1.68176 9.40256 1.37077C9.30873 1.13047 9.27422 0.985846 9.2948 1.13047C9.34612 1.46154 9.42589 1.7848 9.53273 2.09466C9.69017 2.5467 9.95185 2.93048 10.2846 3.19744C10.6897 3.54168 11.2945 3.86709 11.915 4.07801C12.5355 4.28892 13.1718 4.38534 13.6228 4.47197C13.955 4.52658 14.2828 4.61706 14.6024 4.74239C14.8639 4.84935 15.1212 4.9872 15.1315 4.80793V4.80567Z" fill="#E20613"/>
<path fill-rule="evenodd" clip-rule="evenodd" d="M9.39386 3.36975C9.14443 3.2191 8.72791 3.01421 8.3229 2.8274C7.91788 2.64059 7.53224 2.47412 7.20714 2.24512C6.88204 2.01613 6.6193 1.72537 6.47763 1.409C6.33597 1.09262 6.31296 0.753654 6.29177 0.603001C6.27058 0.452347 6.2494 0.510349 6.24576 0.794331C6.24213 1.07831 6.25787 1.59355 6.51819 2.06585C6.77852 2.53815 7.28463 2.96977 7.73324 3.18746C8.18184 3.40516 8.57172 3.41344 8.8502 3.45713C9.04854 3.48951 9.24436 3.54242 9.43563 3.61532C9.57548 3.65976 9.68748 3.67633 9.70443 3.64093C9.72138 3.60553 9.64389 3.51513 9.39386 3.36674V3.36975Z" fill="#E20613"/>
<path d="M44.8959 14.8714L42.4664 21.7495H46.0383L47.4125 17.8529H45.2748C45.1917 17.8529 45.1119 17.8118 45.0531 17.7386C44.9943 17.6654 44.9612 17.5662 44.9612 17.4627V17.4431L44.8953 14.8707L44.8959 14.8714ZM36.9512 6.94631C36.8564 6.9541 36.7631 6.91475 36.6917 6.83691C36.6203 6.75908 36.5766 6.64913 36.5704 6.53126C36.5641 6.41339 36.5957 6.29725 36.6583 6.2084C36.7208 6.11954 36.8092 6.06525 36.9039 6.05746L37.3229 6.02205L37.5432 5.35541C37.5882 5.21916 37.6748 5.11071 37.784 5.05392C37.8933 4.99714 38.0161 4.99666 38.1256 5.0526C38.2351 5.10853 38.3223 5.21631 38.3679 5.3522C38.4136 5.4881 38.414 5.64099 38.369 5.77724L38.3218 5.91433C38.5864 5.87667 38.8473 5.83147 39.1022 5.77272C39.4391 5.69611 39.7716 5.59193 40.0974 5.46087C40.3646 5.35561 40.6234 5.21995 40.8705 5.05561C41.0499 4.9373 41.2133 4.7848 41.3549 4.60365C41.4259 4.5216 41.4759 4.41517 41.4983 4.29782C41.499 4.27122 41.4944 4.24482 41.4852 4.22083C41.4759 4.19685 41.4622 4.17598 41.4451 4.15997C41.3694 4.07335 41.238 3.99877 41.0473 3.94529C40.788 3.88243 40.5244 3.8514 40.2603 3.85264C39.9083 3.84846 39.5565 3.87186 39.2069 3.92269C38.7631 3.98999 38.326 4.11445 37.9029 4.29406H37.898C37.853 4.31072 37.8057 4.31619 37.759 4.31015C37.7123 4.3041 37.6669 4.28666 37.6256 4.25882C37.5843 4.23098 37.5478 4.19329 37.5182 4.14789C37.4886 4.1025 37.4664 4.05029 37.453 3.99426C37.4396 3.93822 37.4353 3.87944 37.4401 3.82129C37.445 3.76314 37.459 3.70675 37.4814 3.65534C37.5037 3.60393 37.534 3.5585 37.5705 3.52166C37.607 3.48481 37.649 3.45727 37.694 3.4406C38.158 3.24614 38.637 3.11234 39.1233 3.04137C39.5027 2.98691 39.8845 2.96176 40.2663 2.96604C40.5812 2.96559 40.8953 3.00394 41.2041 3.08054C41.5238 3.16943 41.7647 3.31933 41.9306 3.50764C42.0319 3.61575 42.1104 3.75307 42.1593 3.90761C42.2081 4.06215 42.2259 4.22922 42.2109 4.39424C42.1867 4.67295 42.0729 4.9509 41.8822 5.20852C41.6881 5.45899 41.4633 5.66951 41.2162 5.83223C40.9298 6.02467 40.6296 6.18378 40.3196 6.30754C39.9628 6.45042 39.5987 6.5639 39.2299 6.64726C38.86 6.73238 38.4798 6.79114 38.0948 6.83633L38.0118 6.84613L32.8883 22.3506C32.8411 22.4829 32.7544 22.5871 32.6464 22.641C32.5385 22.6949 32.4179 22.6944 32.3103 22.6395C32.2027 22.5845 32.1166 22.4796 32.0702 22.3469C32.0238 22.2142 32.0209 22.0642 32.0619 21.9288L35.4637 11.6437L25.1846 13.1623C25.5706 13.473 25.9108 13.8641 26.1901 14.3185C27.3138 16.091 27.2768 18.515 26.4595 20.7123C26.6087 20.7401 26.7545 20.7907 26.8936 20.8629L27.9089 18.7131L27.878 18.6995C27.7088 18.6246 27.5589 18.4946 27.4439 18.3229C27.4392 18.317 27.4347 18.3107 27.4306 18.3041C27.3154 18.1212 27.2439 17.9016 27.2242 17.6706C27.2084 17.4598 27.2199 17.2472 27.2581 17.0408C27.2891 16.8671 27.3295 16.6963 27.3791 16.5294C27.4129 16.4105 27.4533 16.2947 27.5002 16.1829C27.5401 16.0856 27.5955 15.9995 27.6631 15.9298C27.7999 15.7965 27.8877 15.7965 28.4604 15.7965H30.793C30.8582 15.8004 30.9197 15.8354 30.9647 15.8943C31.0098 15.9531 31.0349 16.0312 31.0349 16.1124C31.0349 16.1937 31.0098 16.2718 30.9647 16.3306C30.9197 16.3895 30.8582 16.4245 30.793 16.4284H28.4586C28.0348 16.4284 27.9773 16.4239 27.9743 16.4284C27.9611 16.4455 27.9503 16.4651 27.9422 16.4864C27.9078 16.5706 27.8782 16.6577 27.8538 16.7471C27.8118 16.8861 27.7777 17.0286 27.7515 17.1734C27.7251 17.3135 27.7163 17.4578 27.7254 17.6013C27.7347 17.7149 27.7691 17.8231 27.8247 17.9139L27.8332 17.9282C27.891 18.0101 27.9651 18.0717 28.0481 18.1067C28.186 18.1631 28.3313 18.1859 28.4761 18.1738C28.6505 18.1634 28.8226 18.12 28.9865 18.045C29.1371 17.9741 29.2807 17.8821 29.4145 17.7708C29.5715 17.6413 29.7188 17.4946 29.8546 17.3324C29.9455 17.2261 30.0303 17.1121 30.1083 16.9911C30.1803 16.8796 30.2366 16.7795 30.2899 16.68C30.3087 16.6453 30.3328 16.6156 30.3609 16.5926C30.389 16.5697 30.4205 16.5539 30.4535 16.5462C30.4866 16.5386 30.5205 16.5392 30.5534 16.548C30.5863 16.5569 30.6174 16.5738 30.6449 16.5977C30.6725 16.6217 30.6959 16.6523 30.7139 16.6876C30.7318 16.723 30.7439 16.7624 30.7495 16.8037C30.755 16.845 30.7539 16.8872 30.7462 16.9279C30.7385 16.9686 30.7244 17.007 30.7046 17.0408C30.6404 17.1546 30.5763 17.2668 30.5006 17.3858C30.4083 17.5287 30.3084 17.6635 30.2015 17.7896C30.0434 17.9781 29.872 18.1485 29.6894 18.2988C29.5236 18.4364 29.3456 18.5499 29.159 18.637C28.9806 18.7179 28.7947 18.7705 28.6057 18.7937C28.6163 18.8921 28.6001 18.9921 28.5597 19.0777L27.4851 21.3646C27.7331 21.6773 27.9013 22.0742 27.9686 22.5055C28.0359 22.9367 27.9993 23.3831 27.8635 23.7886C29.5265 23.4738 31.2247 23.18 32.9949 22.9322C34.4557 22.728 35.9656 22.5555 37.4397 22.4229C37.4089 22.3864 37.3844 22.3425 37.3676 22.2938C37.3509 22.2451 37.3422 22.1927 37.3423 22.1397C37.3421 22.0756 37.3548 22.0124 37.3792 21.9559L38.8533 17.7821L37.5765 17.7557C37.5163 17.7543 37.4577 17.7314 37.4077 17.6896C37.3576 17.6478 37.3184 17.5889 37.2946 17.52C37.2708 17.4512 37.2635 17.3752 37.2736 17.3013C37.2837 17.2274 37.3107 17.1587 37.3513 17.1034L40.4704 12.8813C40.4996 12.8416 40.5352 12.8099 40.5748 12.7883C40.6144 12.7666 40.6572 12.7555 40.7004 12.7555H49.1028C49.1841 12.7555 49.2622 12.7947 49.3206 12.865C49.379 12.9353 49.4131 13.0311 49.4158 13.1321L49.7687 17.4258C49.7729 17.4766 49.769 17.528 49.7572 17.577C49.7454 17.6259 49.726 17.6715 49.7 17.7111C49.674 17.7507 49.642 17.7836 49.6058 17.8078C49.5696 17.832 49.5299 17.847 49.489 17.8521C49.4786 17.8529 49.4681 17.8529 49.4576 17.8521H48.0954L46.5274 22.2964C47.5947 22.4003 48.4526 22.5405 49.0998 22.673C50.3657 22.9359 50.8264 23.1755 51.2871 23.4158C50.1877 23.5604 49.0871 23.702 47.9477 24.105C46.8083 24.508 45.632 25.1633 44.4545 25.8209L46.8277 23.6786C46.2017 23.5513 45.5763 23.424 43.8552 23.3623C42.134 23.3005 39.3177 23.3028 36.37 23.4753C33.4223 23.6478 30.3438 23.9897 28.1535 24.221L27.6407 24.2752C27.4849 24.5312 27.2874 24.7434 27.061 24.8977C26.8347 25.0521 26.5848 25.1451 26.3275 25.1708C26.0702 25.1965 25.8115 25.1542 25.5683 25.0467C25.3251 24.9392 25.103 24.769 24.9164 24.5472C24.363 24.5999 23.8599 24.6466 23.3575 24.6933C23.8385 24.5929 24.3198 24.4942 24.8013 24.3973C24.6974 24.2483 24.6096 24.0829 24.5404 23.9054C24.4242 24.0334 24.3043 24.1585 24.182 24.2782C24.2789 24.0774 24.3735 23.8795 24.4659 23.6847C24.3962 23.443 24.3608 23.1881 24.3612 22.9314C24.3623 22.4471 24.4891 21.9762 24.7228 21.589C24.9565 21.2017 25.2845 20.9187 25.658 20.7823C25.9207 19.8897 26.0527 18.9458 26.0479 17.9952C26.0521 14.5731 25.1089 13.4839 22.123 12.3503C22.5768 12.3393 23.0306 12.369 23.481 12.4391L22.4088 8.88899C21.5515 9.02156 20.7554 9.11497 20.3867 9.17071C19.5313 9.17071 18.9229 8.48147 19.0288 7.63178C19.1348 6.7821 19.9139 6.09286 20.77 6.09286C21.9251 6.29473 25.1852 6.68417 25.4588 7.96322C25.2118 8.31952 24.1566 8.58617 23.0535 8.78202L24.0906 12.2124C24.1087 12.2719 24.1149 12.3359 24.1087 12.399C24.1024 12.4622 24.084 12.5225 24.0549 12.5747C24.0888 12.5845 24.1221 12.5958 24.1554 12.6071C24.1696 12.486 24.2155 12.3741 24.286 12.2887C24.3565 12.2034 24.4476 12.1493 24.5453 12.1348L35.8536 10.4641L37.019 6.94028L36.9512 6.94631ZM39.5326 17.7934L38.1365 21.7465H41.7835L43.9872 15.5072L42.5172 17.706C42.4877 17.7536 42.4497 17.792 42.4062 17.8181C42.3627 17.8443 42.3149 17.8575 42.2666 17.8566L39.5326 17.7964V17.7934ZM42.1274 17.071L44.4963 13.5306H40.8372L38.2837 16.9881L42.1274 17.0695V17.071ZM48.8201 13.5306H45.4867L45.5775 17.071H49.1107L48.8201 13.5306Z" fill="white"/>
</g>
<defs>
<clipPath id="clip0">
<rect width="63" height="29.0656" fill="white" transform="translate(0 0.527832)"/>
</clipPath>
</defs>
</svg>
